<svg width="18" height="19" viewBox="0 0 18 19" fill="none" xmlns="http://www.w3.org/2000/svg">
<path fill-rule="evenodd" clip-rule="evenodd" d="M13 0.354004H5C2.23858 0.354004 0 2.59258 0 5.354V13.354C0 16.1154 2.23858 18.354 5 18.354H13C15.7614 18.354 18 16.1154 18 13.354V5.354C18 2.59258 15.7614 0.354004 13 0.354004ZM16.25 13.354C16.2445 15.1466 14.7926 16.5985 13 16.604H5C3.20735 16.5985 1.75549 15.1466 1.75 13.354V5.354C1.75549 3.56135 3.20735 2.10949 5 2.104H13C14.7926 2.10949 16.2445 3.56135 16.25 5.354V13.354ZM13.75 5.604C14.3023 5.604 14.75 5.15628 14.75 4.604C14.75 4.05172 14.3023 3.604 13.75 3.604C13.1977 3.604 12.75 4.05172 12.75 4.604C12.75 5.15628 13.1977 5.604 13.75 5.604ZM9 4.854C6.51472 4.854 4.5 6.86872 4.5 9.354C4.5 11.8393 6.51472 13.854 9 13.854C11.4853 13.854 13.5 11.8393 13.5 9.354C13.5027 8.1597 13.0294 7.01357 12.1849 6.16908C11.3404 5.32459 10.1943 4.85134 9 4.854ZM6.25 9.354C6.25 10.8728 7.4812 12.104 9 12.104C10.5188 12.104 11.75 10.8728 11.75 9.354C11.75 7.8352 10.5188 6.604 9 6.604C7.4812 6.604 6.25 7.8352 6.25 9.354Z" fill="#25262B"/>
</svg>
