<svg width="18" height="19" viewBox="0 0 18 19" fill="none" xmlns="http://www.w3.org/2000/svg">
<path fill-rule="evenodd" clip-rule="evenodd" d="M1.5 0.354004C0.67157 0.354004 0 1.02557 0 1.854V16.854C0 17.6824 0.67157 18.354 1.5 18.354H16.5C17.3284 18.354 18 17.6824 18 16.854V1.854C18 1.02557 17.3284 0.354004 16.5 0.354004H1.5ZM5.52076 4.35672C5.52639 5.31297 4.81061 5.90219 3.96123 5.89797C3.16107 5.89375 2.46357 5.25672 2.46779 4.35813C2.47201 3.51297 3.13998 2.83375 4.00764 2.85344C4.88795 2.87313 5.52639 3.5186 5.52076 4.35672ZM9.2797 7.11576H6.75971H6.7583V15.6756H9.4217V15.4759C9.4217 15.096 9.4214 14.716 9.4211 14.3359C9.4203 13.3221 9.4194 12.3072 9.4246 11.2937C9.426 11.0476 9.4372 10.7917 9.5005 10.5568C9.7381 9.6793 10.5271 9.1126 11.4074 9.2519C11.9727 9.3404 12.3467 9.6681 12.5042 10.2011C12.6013 10.5343 12.6449 10.8929 12.6491 11.2403C12.6605 12.2879 12.6589 13.3355 12.6573 14.3832C12.6567 14.753 12.6561 15.123 12.6561 15.4928V15.6742H15.328V15.4689C15.328 15.0169 15.3278 14.565 15.3275 14.1131C15.327 12.9836 15.3264 11.8541 15.3294 10.7242C15.3308 10.2137 15.276 9.7103 15.1508 9.2167C14.9638 8.4826 14.5771 7.8751 13.9485 7.4364C13.5027 7.12419 13.0133 6.9231 12.4663 6.9006C12.404 6.89801 12.3412 6.89462 12.2781 6.89121C11.9984 6.87609 11.7141 6.86073 11.4467 6.91466C10.6817 7.06794 10.0096 7.4181 9.5019 8.0354C9.4429 8.1062 9.3852 8.1781 9.2991 8.2854L9.2797 8.3097V7.11576ZM2.68164 15.6784H5.33242V7.12133H2.68164V15.6784Z" fill="#25262B"/>
</svg>
