<svg width="16" height="20" viewBox="0 0 16 20" fill="none" xmlns="http://www.w3.org/2000/svg">
<path d="M8.0001 -0.000488281C4.00613 -0.000488281 0.756836 3.24881 0.756836 7.24271C0.756836 12.1993 7.2388 19.4758 7.5148 19.7831C7.774 20.0718 8.2266 20.0713 8.4854 19.7831C8.7613 19.4758 15.2433 12.1993 15.2433 7.24271C15.2432 3.24881 11.994 -0.000488281 8.0001 -0.000488281ZM8.0001 10.887C5.99062 10.887 4.35586 9.25221 4.35586 7.24271C4.35586 5.23326 5.99066 3.59849 8.0001 3.59849C10.0095 3.59849 11.6443 5.2333 11.6443 7.24275C11.6443 9.25221 10.0095 10.887 8.0001 10.887Z" fill="#EAA63F"/>
</svg>
