<svg width="18" height="18" viewBox="0 0 18 18" fill="none" xmlns="http://www.w3.org/2000/svg">
<path d="M14 18.0003C12.3463 17.9988 10.7183 17.5901 9.26 16.8103L8.81 16.5603C5.70075 14.8886 3.15169 12.3395 1.48 9.23029L1.23 8.78029C0.429821 7.31369 0.00713062 5.67097 6.21756e-07 4.00027V3.33027C-0.000419378 2.79723 0.211961 2.28607 0.590001 1.91027L2.28 0.220267C2.44413 0.0548675 2.67581 -0.0248525 2.90696 0.0045275C3.13811 0.0339075 3.34248 0.169068 3.46 0.370268L5.71 4.23027C5.93753 4.62316 5.87183 5.12003 5.55 5.44027L3.66 7.33029C3.50304 7.48549 3.46647 7.72529 3.57 7.92029L3.92 8.58029C5.17704 10.9087 7.0893 12.8175 9.42 14.0703L10.08 14.4303C10.275 14.5338 10.5148 14.4972 10.67 14.3403L12.56 12.4503C12.8802 12.1285 13.3771 12.0628 13.77 12.2903L17.63 14.5403C17.8312 14.6578 17.9664 14.8622 17.9957 15.0933C18.0251 15.3245 17.9454 15.5562 17.78 15.7203L16.09 17.4103C15.7142 17.7883 15.203 18.0007 14.67 18.0003H14Z" fill="#EAA63F"/>
</svg>
