<svg width="28" height="27" viewBox="0 0 28 27" fill="none" xmlns="http://www.w3.org/2000/svg">
<path fill-rule="evenodd" clip-rule="evenodd" d="M13.9998 0.222412C6.63604 0.222412 0.666504 6.19195 0.666504 13.5557C0.666504 20.9195 6.63604 26.8891 13.9998 26.8891C21.3636 26.8891 27.3332 20.9195 27.3332 13.5557C27.3332 10.0195 25.9284 6.62815 23.428 4.12765C20.9274 1.62717 17.5361 0.222412 13.9998 0.222412ZM13.9998 24.2224C8.1088 24.2224 3.33317 19.4468 3.33317 13.5557C3.33317 7.66471 8.1088 2.88908 13.9998 2.88908C19.8909 2.88908 24.6665 7.66471 24.6665 13.5557C24.6665 16.3847 23.5426 19.0979 21.5424 21.0983C19.542 23.0985 16.8288 24.2224 13.9998 24.2224ZM15.1732 6.22241V13.0757L20.0132 17.9157C20.2689 18.1795 20.2689 18.5987 20.0132 18.8624L19.3065 19.5691C19.0428 19.8248 18.6236 19.8248 18.3598 19.5691L13.0265 14.2357C12.9044 14.1103 12.833 13.944 12.8265 13.7691V6.22241C12.8265 5.85423 13.125 5.55575 13.4932 5.55575H14.5065C14.8746 5.55575 15.1732 5.85423 15.1732 6.22241Z" fill="#E9E8DC"/>
</svg>
